<svg xmlns="http://www.w3.org/2000/svg" version="1.1" xmlns:xlink="http://www.w3.org/1999/xlink" xmlns:svgjs="http://svgjs.com/svgjs" width="1920" height="1080" preserveAspectRatio="none" viewBox="0 0 1440 560"><g mask="url(&quot;#SvgjsMask1037&quot;)" fill="none"><path d="M1243 460L1633 70" stroke-width="10" stroke="url(#SvgjsLinearGradient1038)" stroke-linecap="round" class="BottomLeft"></path><path d="M664 378L925 117" stroke-width="6" stroke="url(#SvgjsLinearGradient1039)" stroke-linecap="round" class="TopRight"></path><path d="M1435 459L1820 74" stroke-width="6" stroke="url(#SvgjsLinearGradient1039)" stroke-linecap="round" class="TopRight"></path><path d="M777 461L1013 225" stroke-width="10" stroke="url(#SvgjsLinearGradient1039)" stroke-linecap="round" class="TopRight"></path><path d="M610 254L911 -47" stroke-width="10" stroke="url(#SvgjsLinearGradient1039)" stroke-linecap="round" class="TopRight"></path><path d="M1306 356L993 669" stroke-width="8" stroke="url(#SvgjsLinearGradient1038)" stroke-linecap="round" class="BottomLeft"></path><path d="M980 500L711 769" stroke-width="6" stroke="url(#SvgjsLinearGradient1039)" stroke-linecap="round" class="TopRight"></path><path d="M459 31L693 -203" stroke-width="10" stroke="url(#SvgjsLinearGradient1039)" stroke-linecap="round" class="TopRight"></path><path d="M519 147L341 325" stroke-width="6" stroke="url(#SvgjsLinearGradient1038)" stroke-linecap="round" class="BottomLeft"></path><path d="M896 497L678 715" stroke-width="6" stroke="url(#SvgjsLinearGradient1038)" stroke-linecap="round" class="BottomLeft"></path><path d="M1086 210L1343 -47" stroke-width="6" stroke="url(#SvgjsLinearGradient1038)" stroke-linecap="round" class="BottomLeft"></path><path d="M72 460L404 128" stroke-width="10" stroke="url(#SvgjsLinearGradient1038)" stroke-linecap="round" class="BottomLeft"></path><path d="M1013 106L1203 -84" stroke-width="6" stroke="url(#SvgjsLinearGradient1039)" stroke-linecap="round" class="TopRight"></path><path d="M1311 265L1625 -49" stroke-width="10" stroke="url(#SvgjsLinearGradient1039)" stroke-linecap="round" class="TopRight"></path><path d="M1189 124L826 487" stroke-width="6" stroke="url(#SvgjsLinearGradient1039)" stroke-linecap="round" class="TopRight"></path><path d="M341 325L-24 690" stroke-width="6" stroke="url(#SvgjsLinearGradient1039)" stroke-linecap="round" class="TopRight"></path><path d="M641 22L312 351" stroke-width="10" stroke="url(#SvgjsLinearGradient1039)" stroke-linecap="round" class="TopRight"></path><path d="M709 110L912 -93" stroke-width="8" stroke="url(#SvgjsLinearGradient1039)" stroke-linecap="round" class="TopRight"></path><path d="M245 52L555 -258" stroke-width="6" stroke="url(#SvgjsLinearGradient1039)" stroke-linecap="round" class="TopRight"></path><path d="M135 77L-8 220" stroke-width="6" stroke="url(#SvgjsLinearGradient1038)" stroke-linecap="round" class="BottomLeft"></path><path d="M302 365L585 82" stroke-width="6" stroke="url(#SvgjsLinearGradient1039)" stroke-linecap="round" class="TopRight"></path><path d="M277 296L693 -120" stroke-width="6" stroke="url(#SvgjsLinearGradient1039)" stroke-linecap="round" class="TopRight"></path><path d="M954 125L587 492" stroke-width="10" stroke="url(#SvgjsLinearGradient1038)" stroke-linecap="round" class="BottomLeft"></path><path d="M1070 116L756 430" stroke-width="6" stroke="url(#SvgjsLinearGradient1038)" stroke-linecap="round" class="BottomLeft"></path><path d="M768 210L962 16" stroke-width="10" stroke="url(#SvgjsLinearGradient1039)" stroke-linecap="round" class="TopRight"></path><path d="M18 164L-138 320" stroke-width="10" stroke="url(#SvgjsLinearGradient1038)" stroke-linecap="round" class="BottomLeft"></path><path d="M133 495L-202 830" stroke-width="8" stroke="url(#SvgjsLinearGradient1038)" stroke-linecap="round" class="BottomLeft"></path><path d="M923 112L1081 -46" stroke-width="6" stroke="url(#SvgjsLinearGradient1039)" stroke-linecap="round" class="TopRight"></path><path d="M1366 346L1712 0" stroke-width="8" stroke="url(#SvgjsLinearGradient1038)" stroke-linecap="round" class="BottomLeft"></path><path d="M392 486L766 112" stroke-width="6" stroke="url(#SvgjsLinearGradient1038)" stroke-linecap="round" class="BottomLeft"></path><path d="M359 319L518 160" stroke-width="8" stroke="url(#SvgjsLinearGradient1038)" stroke-linecap="round" class="BottomLeft"></path><path d="M1128 499L740 887" stroke-width="10" stroke="url(#SvgjsLinearGradient1038)" stroke-linecap="round" class="BottomLeft"></path><path d="M1340 266L1628 -22" stroke-width="8" stroke="url(#SvgjsLinearGradient1038)" stroke-linecap="round" class="BottomLeft"></path><path d="M863 263L598 528" stroke-width="10" stroke="url(#SvgjsLinearGradient1038)" stroke-linecap="round" class="BottomLeft"></path><path d="M758 117L899 -24" stroke-width="6" stroke="url(#SvgjsLinearGradient1038)" stroke-linecap="round" class="BottomLeft"></path><path d="M1411 341L1205 547" stroke-width="10" stroke="url(#SvgjsLinearGradient1038)" stroke-linecap="round" class="BottomLeft"></path><path d="M652 130L323 459" stroke-width="10" stroke="url(#SvgjsLinearGradient1038)" stroke-linecap="round" class="BottomLeft"></path><path d="M358 378L-37 773" stroke-width="6" stroke="url(#SvgjsLinearGradient1039)" stroke-linecap="round" class="TopRight"></path><path d="M506 509L911 104" stroke-width="10" stroke="url(#SvgjsLinearGradient1038)" stroke-linecap="round" class="BottomLeft"></path></g><defs><mask id="SvgjsMask1037"><rect width="1440" height="560" fill="#ffffff"></rect></mask><linearGradient x1="100%" y1="0%" x2="0%" y2="100%" id="SvgjsLinearGradient1038"><stop stop-color="rgba(68, 68, 68, 0)" offset="0"></stop><stop stop-color="rgba(68, 68, 68, 0.26666666666666666)" offset="1"></stop></linearGradient><linearGradient x1="0%" y1="100%" x2="100%" y2="0%" id="SvgjsLinearGradient1039"><stop stop-color="rgba(68, 68, 68, 0)" offset="0"></stop><stop stop-color="rgba(68, 68, 68, 0.26666666666666666)" offset="1"></stop></linearGradient></defs></svg>