<svg xmlns="http://www.w3.org/2000/svg" version="1.1" xmlns:xlink="http://www.w3.org/1999/xlink" xmlns:svgjs="http://svgjs.com/svgjs" width="1920" height="600" preserveAspectRatio="none" viewBox="0 0 1920 600"><g mask="url(&quot;#SvgjsMask1146&quot;)" fill="none"><path d="M0 350.76L10 382.88L20 392.79L30 435.55L40 362.06L50 420.21L60 437.42L70 439.22L80 409.77L90 356.92L100 399.12L110 441.04L120 445.33L130 444.55L140 470.72L150 462.64L160 407.33L170 344.57L180 367.88L190 328.82L200 385.48L210 356.23L220 320.33L230 290.73L240 257.07L250 321.66L260 394.28L270 461.61L280 394.98L290 358.13L300 408.42L310 477.4L320 467.19L330 512.89L340 547.52L350 511.75L360 540.94L370 571.02L380 502.97L390 539.09L400 485.72L410 431.32L420 478.65L430 442.46L440 380.74L450 318.28L460 354.24L470 287.53L480 241.66L490 303.8L500 337.39L510 336.93L520 270.23L530 230.18L540 281.08L550 210.68L560 162.81L570 232.77L580 231.02L590 291.65L600 227.82L610 230.9L620 215.91L630 256.38L640 272.12L650 327.67L660 321.88L670 366.47L680 391.03L690 333.98L700 278.56L710 285.19L720 289.43L730 325.06L740 390.26L750 316.59L760 344.64L770 356.85L780 322.86L790 394.85L800 413.62L810 473.37L820 508.55L830 451.18L840 417.59L850 344.4L860 326.9L870 363.2L880 378.86L890 448.47L900 486.36L910 411.53L920 429.67L930 364.44L940 307.41L950 248.39L960 249.79L970 176.37L980 146.82L990 94.24L1000 165.73L1010 193.13L1020 265.9L1030 273.28L1040 231.6L1050 223.29L1060 199.71L1070 196.71L1080 183.73L1090 221.8L1100 216.22L1110 213.51L1120 234.26L1130 223.34L1140 290.75L1150 288.78L1160 266.96L1170 241.82L1180 289.5L1190 260.56L1200 319.33L1210 364.76L1220 377.69L1230 410.57L1240 391.37L1250 378.47L1260 327.78L1270 344.34L1280 323.3L1290 341.82L1300 381.38L1310 376.77L1320 392.22L1330 371.45L1340 427.97L1350 404.8L1360 388.31L1370 318.02L1380 254.71L1390 292.93L1400 274.65L1410 283.31L1420 344.2L1430 380.56L1440 379.08L1450 330.53L1460 370.02L1470 310.61L1480 267.64L1490 198.71L1500 221L1510 234.73L1520 251.46L1530 259.79L1540 324.21L1550 359.71L1560 315.77L1570 352.48L1580 293.75L1590 343.96L1600 401.94L1610 439.6L1620 459.7L1630 442.07L1640 403.16L1650 347.98L1660 376L1670 441.98L1680 373.82L1690 448.22L1700 425.68L1710 430.57L1720 385.02L1730 441.41L1740 477.48L1750 435.37L1760 449.9L1770 400.63L1780 377.41L1790 418.52L1800 456.48L1810 514.55L1820 525.9L1830 520.76L1840 521.4L1850 546.68L1860 541.11L1870 591.96L1880 574.03L1890 590.98L1900 566.21L1910 539.93L1920 471.28" stroke="rgba(218, 0, 55, 1)" stroke-width="2"></path><path d="M0 350.76L10 382.88L20 392.79L30 435.55L40 362.06L50 420.21L60 437.42L70 439.22L80 409.77L90 356.92L100 399.12L110 441.04L120 445.33L130 444.55L140 470.72L150 462.64L160 407.33L170 344.57L180 367.88L190 328.82L200 385.48L210 356.23L220 320.33L230 290.73L240 257.07L250 321.66L260 394.28L270 461.61L280 394.98L290 358.13L300 408.42L310 477.4L320 467.19L330 512.89L340 547.52L350 511.75L360 540.94L370 571.02L380 502.97L390 539.09L400 485.72L410 431.32L420 478.65L430 442.46L440 380.74L450 318.28L460 354.24L470 287.53L480 241.66L490 303.8L500 337.39L510 336.93L520 270.23L530 230.18L540 281.08L550 210.68L560 162.81L570 232.77L580 231.02L590 291.65L600 227.82L610 230.9L620 215.91L630 256.38L640 272.12L650 327.67L660 321.88L670 366.47L680 391.03L690 333.98L700 278.56L710 285.19L720 289.43L730 325.06L740 390.26L750 316.59L760 344.64L770 356.85L780 322.86L790 394.85L800 413.62L810 473.37L820 508.55L830 451.18L840 417.59L850 344.4L860 326.9L870 363.2L880 378.86L890 448.47L900 486.36L910 411.53L920 429.67L930 364.44L940 307.41L950 248.39L960 249.79L970 176.37L980 146.82L990 94.24L1000 165.73L1010 193.13L1020 265.9L1030 273.28L1040 231.6L1050 223.29L1060 199.71L1070 196.71L1080 183.73L1090 221.8L1100 216.22L1110 213.51L1120 234.26L1130 223.34L1140 290.75L1150 288.78L1160 266.96L1170 241.82L1180 289.5L1190 260.56L1200 319.33L1210 364.76L1220 377.69L1230 410.57L1240 391.37L1250 378.47L1260 327.78L1270 344.34L1280 323.3L1290 341.82L1300 381.38L1310 376.77L1320 392.22L1330 371.45L1340 427.97L1350 404.8L1360 388.31L1370 318.02L1380 254.71L1390 292.93L1400 274.65L1410 283.31L1420 344.2L1430 380.56L1440 379.08L1450 330.53L1460 370.02L1470 310.61L1480 267.64L1490 198.71L1500 221L1510 234.73L1520 251.46L1530 259.79L1540 324.21L1550 359.71L1560 315.77L1570 352.48L1580 293.75L1590 343.96L1600 401.94L1610 439.6L1620 459.7L1630 442.07L1640 403.16L1650 347.98L1660 376L1670 441.98L1680 373.82L1690 448.22L1700 425.68L1710 430.57L1720 385.02L1730 441.41L1740 477.48L1750 435.37L1760 449.9L1770 400.63L1780 377.41L1790 418.52L1800 456.48L1810 514.55L1820 525.9L1830 520.76L1840 521.4L1850 546.68L1860 541.11L1870 591.96L1880 574.03L1890 590.98L1900 566.21L1910 539.93L1920 471.28L1920 600L0 600z" fill="url(#SvgjsLinearGradient1147)"></path></g><defs><mask id="SvgjsMask1146"><rect width="1920" height="600" fill="#ffffff"></rect></mask><linearGradient x1="50%" y1="0%" x2="50%" y2="100%" id="SvgjsLinearGradient1147"><stop stop-opacity="0.65" stop-color="rgba(218, 0, 55, 1)" offset="0"></stop><stop stop-opacity="0" stop-color="#ff9bb4" offset="0.8"></stop></linearGradient></defs></svg>